<?xml version="1.0"?>
<svg xmlns="http://www.w3.org/2000/svg" height="512px" viewBox="-43 0 411 411.51463" width="512px" class=""><g><path d="m10.1875 167h60.070312v224.507812c-.015624 7.597657 4.285157 14.542969 11.089844 17.921876 6.804688 3.375 14.9375 2.59375 20.980469-2.011719l94.9375-72.34375 94.945313 72.34375c6.035156 4.613281 14.167968 5.394531 20.972656 2.015625 6.804687-3.375 11.101562-10.328125 11.074218-17.925782v-341.015624c0-27.570313-22.363281-50.492188-49.929687-50.492188h-224.140625c-27.570312 0-49.929688 22.921875-49.929688 50.492188v106.957031c0 5.523437 4.40625 9.550781 9.929688 9.550781zm234.140625-147h30c16.539063 0 29.929687 13.949219 29.929687 30.492188v341.015624l-100.972656-76.957031c-3.5625-2.730469-8.511718-2.730469-12.070312 0l-100.957032 76.957031v-371.507812zm-224.070313 30.492188c0-16.542969 13.386719-30.492188 29.929688-30.492188h20.070312v127h-50zm0 0" data-original="#000000" class="active-path" data-old_color="#EB3B5A" fill="#EB3B5B"/></g> </svg>
